<?xml version="1.0" standalone="no"?>
<!DOCTYPE svg PUBLIC "-//W3C//DTD SVG 20010904//EN"
 "http://www.w3.org/TR/2001/REC-SVG-20010904/DTD/svg10.dtd">
<svg version="1.0" xmlns="http://www.w3.org/2000/svg"
 width="1280.000000pt" height="720.000000pt" viewBox="0 0 1200.000000 720.000000"
 preserveAspectRatio="xMidYMid meet" class="icon">
<metadata>
Created by potrace 1.15, written by Peter Selinger 2001-2017
</metadata>
<g transform="translate(0.000000,720.000000) scale(0.100000,-0.100000)"
fill="#ffffff" stroke="none">
<path d="M6166 6402 c-3 -5 -28 -12 -56 -16 -113 -15 -375 -123 -485 -200
-236 -165 -397 -365 -499 -619 -102 -252 -106 -605 -11 -868 84 -234 248 -453
460 -611 84 -63 279 -167 355 -189 25 -7 50 -16 55 -19 6 -4 51 -16 100 -26
73 -15 133 -19 315 -19 236 0 296 8 445 57 76 25 245 106 310 149 241 158 435
402 522 654 44 126 53 168 65 290 12 130 1 353 -21 420 -6 17 -22 68 -37 115
-63 203 -227 442 -392 573 -138 110 -314 209 -437 247 -22 7 -49 16 -60 21
-76 31 -180 43 -397 46 -128 2 -229 0 -232 -5z"/>
<path d="M4390 6295 c-221 -36 -416 -140 -576 -308 -148 -154 -221 -289 -265
-492 -4 -22 -8 -103 -8 -180 0 -140 4 -171 33 -276 55 -202 218 -417 409 -543
176 -115 330 -164 542 -173 149 -5 223 2 348 36 104 27 131 41 135 69 2 13
-17 69 -42 126 -25 56 -46 108 -46 114 0 7 -9 38 -20 69 -44 129 -67 342 -52
481 15 136 28 207 52 281 11 35 20 68 20 73 0 10 11 36 65 153 41 91 134 241
179 290 35 37 43 65 30 99 -3 9 -10 16 -15 16 -5 0 -32 15 -61 34 -192 122
-475 173 -728 131z"/>
<path d="M8054 6300 c-55 -8 -88 -16 -210 -56 -45 -14 -143 -64 -211 -107 -52
-33 -58 -70 -17 -108 62 -57 197 -290 250 -433 125 -333 106 -743 -47 -1059
-36 -74 -38 -121 -6 -141 24 -15 163 -54 242 -66 65 -11 278 -11 335 0 160 29
291 80 427 167 75 46 238 211 288 288 46 72 105 193 105 215 0 9 4 20 9 26 6
5 15 43 21 84 6 41 16 98 22 127 6 28 8 73 5 100 -26 217 -48 299 -114 423
-57 106 -69 122 -167 226 -150 158 -286 234 -546 305 -49 14 -312 20 -386 9z"/>
<path d="M4140 4049 c-163 -22 -327 -88 -448 -180 -133 -101 -213 -217 -296
-429 -21 -52 -42 -105 -46 -117 -17 -41 -98 -287 -114 -343 -8 -30 -25 -86
-37 -125 -31 -100 -67 -232 -109 -395 -6 -25 -15 -54 -20 -65 -13 -30 -20
-153 -14 -212 6 -42 14 -59 46 -93 22 -22 58 -49 81 -60 41 -20 62 -20 647
-18 l605 3 38 120 c21 66 44 136 52 155 7 19 25 73 40 120 25 81 57 172 75
215 5 11 25 63 46 115 135 347 279 525 564 698 69 41 242 115 300 127 93 20
103 64 36 153 -146 192 -359 295 -686 332 -91 10 -683 10 -760 -1z"/>
<path d="M7785 4050 c-236 -36 -420 -130 -567 -289 -70 -77 -90 -112 -86 -149
4 -32 14 -37 173 -93 272 -95 452 -231 606 -459 71 -106 145 -243 194 -361 57
-136 77 -186 91 -229 8 -25 19 -54 24 -65 5 -11 24 -63 41 -115 18 -52 47
-135 64 -185 l31 -90 612 -3 c603 -2 613 -2 656 19 25 11 63 41 86 65 l40 44
0 106 c0 78 -5 123 -19 168 -11 33 -29 93 -40 131 -91 324 -161 533 -266 800
-105 265 -201 413 -333 512 -141 106 -312 166 -552 193 -92 10 -686 10 -755 0z"/>
<path d="M5820 3440 c-36 -5 -83 -14 -105 -20 -93 -25 -234 -74 -285 -97 -97
-45 -225 -141 -321 -241 -82 -84 -102 -113 -155 -217 -33 -66 -75 -158 -93
-205 -18 -47 -37 -94 -42 -105 -5 -11 -17 -45 -27 -75 -11 -30 -37 -109 -59
-175 -23 -66 -55 -167 -73 -225 -18 -58 -36 -114 -41 -125 -4 -11 -15 -47 -24
-80 -9 -33 -25 -91 -36 -130 -45 -154 -125 -463 -149 -570 -16 -72 -11 -166
11 -215 26 -57 60 -93 130 -136 l57 -34 1795 0 1794 0 49 27 c61 33 90 58 118
103 34 55 49 111 43 171 -7 83 -68 327 -147 584 -11 39 -28 95 -36 125 -8 30
-19 64 -24 75 -5 11 -14 38 -20 60 -6 22 -15 49 -20 60 -5 11 -14 38 -20 60
-6 22 -15 49 -20 60 -4 11 -27 74 -49 140 -23 66 -50 140 -61 165 -10 25 -29
72 -41 105 -29 76 -141 308 -171 356 -76 118 -108 161 -162 218 -161 168 -363
263 -711 332 -64 13 -1018 20 -1105 9z"/>
</g>
</svg>
